<svg id="Calque_1" data-name="Calque 1" xmlns="http://www.w3.org/2000/svg" xmlns:xlink="http://www.w3.org/1999/xlink" viewBox="0 0 404.89 172.93"><defs><style>.cls-1{fill:url(#Dégradé_sans_nom_51);}.cls-2{mask:url(#mask);}.cls-3,.cls-4{fill:#ef7d00;}.cls-3,.cls-5,.cls-6{fill-rule:evenodd;}.cls-5{fill:url(#Dégradé_sans_nom_122);}.cls-6{fill:url(#Dégradé_sans_nom_78);}.cls-7{fill:url(#Dégradé_sans_nom_122-2);}.cls-8{fill:url(#Dégradé_sans_nom_122-3);}.cls-9{fill:url(#Dégradé_sans_nom_122-4);}.cls-10{fill:url(#Dégradé_sans_nom_122-5);}</style><linearGradient id="Dégradé_sans_nom_51" x1="473.04" y1="471.99" x2="473.04" y2="361.41" gradientTransform="matrix(1, 0, 0, -1, 0, 819.69)" gradientUnits="userSpaceOnUse"><stop offset="0" stop-color="#fff"/><stop offset="0.06" stop-color="#cbcbcb"/><stop offset="0.12" stop-color="#9d9d9d"/><stop offset="0.18" stop-color="#767675"/><stop offset="0.24" stop-color="#565654"/><stop offset="0.3" stop-color="#3d3d3b"/><stop offset="0.37" stop-color="#2b2b29"/><stop offset="0.44" stop-color="#20201e"/><stop offset="0.52" stop-color="#1d1d1b"/><stop offset="0.53" stop-color="#1b1b19"/><stop offset="0.61" stop-color="#0c0c0b"/><stop offset="0.71" stop-color="#030303"/><stop offset="0.85"/></linearGradient><mask id="mask" x="-9.04" y="116.49" width="420.16" height="111.73" maskUnits="userSpaceOnUse"><g transform="translate(-272 -230.07)"><rect class="cls-1" x="262.96" y="347.7" width="420.16" height="110.58"/></g></mask><linearGradient id="Dégradé_sans_nom_122" x1="317.73" y1="348.62" x2="317.73" y2="294.58" gradientUnits="userSpaceOnUse"><stop offset="0" stop-color="#525252"/><stop offset="0.03" stop-color="#676767"/><stop offset="0.11" stop-color="#8e8e8e"/><stop offset="0.18" stop-color="#afafaf"/><stop offset="0.26" stop-color="#c8c8c8"/><stop offset="0.34" stop-color="#dadada"/><stop offset="0.42" stop-color="#e5e5e5"/><stop offset="0.52" stop-color="#e8e8e8"/><stop offset="0.52" stop-color="#e4e4e4"/><stop offset="0.57" stop-color="#bcbcbc"/><stop offset="0.63" stop-color="#999"/><stop offset="0.68" stop-color="#7e7e7e"/><stop offset="0.74" stop-color="#686868"/><stop offset="0.81" stop-color="#595959"/><stop offset="0.89" stop-color="#505050"/><stop offset="1" stop-color="#4d4d4d"/></linearGradient><linearGradient id="Dégradé_sans_nom_78" x1="45.04" y1="52.83" x2="45.04" y2="1.83" gradientUnits="userSpaceOnUse"><stop offset="0" stop-color="#ef7d00"/><stop offset="0.01" stop-color="#ef7e00"/><stop offset="0.16" stop-color="#f29000"/><stop offset="0.33" stop-color="#f49b00"/><stop offset="0.52" stop-color="#f59e00"/><stop offset="0.54" stop-color="#f6a40c"/><stop offset="0.58" stop-color="#f9b328"/><stop offset="0.63" stop-color="#fbbe3d"/><stop offset="0.69" stop-color="#fdc64c"/><stop offset="0.76" stop-color="#fecb55"/><stop offset="0.85" stop-color="#fecc58"/></linearGradient><linearGradient id="Dégradé_sans_nom_122-2" x1="403.8" y1="348.36" x2="403.8" y2="295" xlink:href="#Dégradé_sans_nom_122"/><linearGradient id="Dégradé_sans_nom_122-3" x1="479.99" y1="348.36" x2="479.99" y2="295" xlink:href="#Dégradé_sans_nom_122"/><linearGradient id="Dégradé_sans_nom_122-4" x1="557.43" y1="348.62" x2="557.43" y2="294.74" xlink:href="#Dégradé_sans_nom_122"/><linearGradient id="Dégradé_sans_nom_122-5" x1="645.12" y1="348.36" x2="645.12" y2="292.18" xlink:href="#Dégradé_sans_nom_122"/></defs><title>Logo Arrow</title><g class="cls-2"><path class="cls-3" d="M292.53,400.59h12.79l-20.13-54h-12.8l20.14,54Zm54.53-54H313.47l4.68,10.26h25.08l-16.31,43.78h12.8l20.13-54H347.06Z" transform="translate(-272 -230.07)"/><path class="cls-4" d="M416.92,346.81l-14.28,27.88h8.21a6.3,6.3,0,0,1,3.51.94A8.41,8.41,0,0,1,416.8,378a10.16,10.16,0,0,1,1.41,3.17,13.61,13.61,0,0,1,.42,3.25,12.69,12.69,0,0,1-2.13,6.88A9.19,9.19,0,0,1,414,393.8a5.94,5.94,0,0,1-3.37,1H383.91v-48h-6v53.36h33.78a10.77,10.77,0,0,0,5-1.24,13.9,13.9,0,0,0,4.19-3.33,16.34,16.34,0,0,0,2.87-5,18,18,0,0,0,1.07-6.24,15.73,15.73,0,0,0-1-5.69,16.43,16.43,0,0,0-2.78-4.78,13.67,13.67,0,0,0-4.1-3.34,10.56,10.56,0,0,0-5-1.24l11.38-22.49Z" transform="translate(-272 -230.07)"/><path class="cls-4" d="M493.12,346.81l-14.28,27.88h8.21a6.27,6.27,0,0,1,3.5.94A8.41,8.41,0,0,1,493,378a9.93,9.93,0,0,1,1.41,3.17,13.16,13.16,0,0,1,.43,3.25,12.19,12.19,0,0,1-.56,3.54,11.81,11.81,0,0,1-1.58,3.34,9,9,0,0,1-2.52,2.48,6,6,0,0,1-3.38,1H460.11v-48h-6v53.36H487.9a10.81,10.81,0,0,0,5.05-1.24,14.15,14.15,0,0,0,4.19-3.33,16.12,16.12,0,0,0,2.86-5,17.79,17.79,0,0,0,1.07-6.24,15.94,15.94,0,0,0-1-5.69,16.89,16.89,0,0,0-2.78-4.78,13.59,13.59,0,0,0-4.11-3.34,10.52,10.52,0,0,0-5-1.24l11.37-22.49Z" transform="translate(-272 -230.07)"/><path class="cls-4" d="M527.92,373.49A26.09,26.09,0,0,0,530.06,384a26.93,26.93,0,0,0,14.37,14.32,27.35,27.35,0,0,0,21.21,0A27,27,0,0,0,580,384a26.73,26.73,0,0,0,0-21,27,27,0,0,0-14.36-14.32,27.35,27.35,0,0,0-21.21,0,27.31,27.31,0,0,0-8.6,5.77,27.6,27.6,0,0,0-5.77,8.55A26.09,26.09,0,0,0,527.92,373.49Zm5.73-.09a19.5,19.5,0,0,1,1.71-8.08,22.45,22.45,0,0,1,4.62-6.71,22,22,0,0,1,6.8-4.62,20.76,20.76,0,0,1,16.5,0,22.6,22.6,0,0,1,6.85,4.62,22.21,22.21,0,0,1,4.66,6.71,19.5,19.5,0,0,1,1.71,8.08,19.92,19.92,0,0,1-1.71,8.09,22,22,0,0,1-4.62,6.79,22.6,22.6,0,0,1-6.8,4.66,19.88,19.88,0,0,1-8.25,1.76,20.14,20.14,0,0,1-8.3-1.76,22.41,22.41,0,0,1-6.84-4.66,22,22,0,0,1-4.62-6.79A19.92,19.92,0,0,1,533.65,373.4Z" transform="translate(-272 -230.07)"/><path class="cls-4" d="M616.94,351.68,642.51,403l26-51.73v48.91h6V346.81H664.06l-21.55,43.61-21.29-43.61H611v53.36h6Z" transform="translate(-272 -230.07)"/></g><path class="cls-3" d="M292.14,293.38h12.79l-20.13,54H272l20.14-54Zm54.53,54H313.08l4.68-10.27h25.08l-16.31-43.77h12.8l20.13,54H346.67Z" transform="translate(-272 -230.07)"/><polygon class="cls-3" points="37.34 17.17 24.74 51 37.53 51 43.74 34.34 49.95 51 62.74 51 50.14 17.17 43.74 0 37.34 17.17 37.34 17.17"/><path class="cls-5" d="M294.14,294.58h12.79l-20.13,54H274l20.14-54Zm54.53,54H315.08l4.68-10.26h25.08l-16.31-43.78h12.8l20.13,54H348.67Z" transform="translate(-272 -230.07)"/><polygon class="cls-6" points="38.64 19 26.04 52.83 38.84 52.83 45.04 36.18 51.25 52.83 64.05 52.83 51.44 19 45.04 1.83 38.64 19 38.64 19"/><path class="cls-4" d="M416.92,346.78l-14.28-27.87h8.21a6.38,6.38,0,0,0,3.51-.94,8.58,8.58,0,0,0,2.44-2.4,10.1,10.1,0,0,0,1.41-3.16,13.68,13.68,0,0,0,.42-3.25,12.28,12.28,0,0,0-.55-3.55,12.09,12.09,0,0,0-1.58-3.34,9.33,9.33,0,0,0-2.53-2.48,6,6,0,0,0-3.37-1H383.91v48h-6V293.42h33.78a10.89,10.89,0,0,1,5,1.24,13.78,13.78,0,0,1,4.19,3.34,16.29,16.29,0,0,1,2.87,5,18,18,0,0,1,1.07,6.24,15.73,15.73,0,0,1-1,5.69,16.48,16.48,0,0,1-2.78,4.79,13.49,13.49,0,0,1-4.1,3.33,10.56,10.56,0,0,1-5,1.24l11.38,22.49Z" transform="translate(-272 -230.07)"/><path class="cls-4" d="M493.12,346.78l-14.28-27.87h8.21a6.35,6.35,0,0,0,3.5-.94,8.58,8.58,0,0,0,2.44-2.4,9.88,9.88,0,0,0,1.41-3.16,13.22,13.22,0,0,0,.43-3.25,12.3,12.3,0,0,0-.56-3.55,11.81,11.81,0,0,0-1.58-3.34,9.15,9.15,0,0,0-2.52-2.48,6.08,6.08,0,0,0-3.38-1H460.11v48h-6V293.42H487.9a10.93,10.93,0,0,1,5.05,1.24,14,14,0,0,1,4.19,3.34,16.07,16.07,0,0,1,2.86,5,17.79,17.79,0,0,1,1.07,6.24,15.94,15.94,0,0,1-1,5.69,17,17,0,0,1-2.78,4.79,13.41,13.41,0,0,1-4.11,3.33,10.52,10.52,0,0,1-5,1.24l11.37,22.49Z" transform="translate(-272 -230.07)"/><path class="cls-4" d="M527.92,320.1a26.08,26.08,0,0,1,2.14-10.47,27,27,0,0,1,14.37-14.33,27.47,27.47,0,0,1,21.21,0A27,27,0,0,1,580,309.63a26.71,26.71,0,0,1,0,20.95,27,27,0,0,1-14.36,14.32,27.35,27.35,0,0,1-21.21,0,27.15,27.15,0,0,1-8.6-5.77,27.49,27.49,0,0,1-5.77-8.55A26.09,26.09,0,0,1,527.92,320.1Zm5.73.09a19.5,19.5,0,0,0,1.71,8.08,22.18,22.18,0,0,0,11.42,11.33,20.76,20.76,0,0,0,16.5,0,22.6,22.6,0,0,0,6.85-4.62,22,22,0,0,0,4.66-6.71,19.5,19.5,0,0,0,1.71-8.08,19.87,19.87,0,0,0-1.71-8.08,22,22,0,0,0-4.62-6.8,22.78,22.78,0,0,0-6.8-4.66,19.87,19.87,0,0,0-8.25-1.75,20.14,20.14,0,0,0-8.3,1.75,22.59,22.59,0,0,0-6.84,4.66,22,22,0,0,0-4.62,6.8A19.87,19.87,0,0,0,533.65,320.19Z" transform="translate(-272 -230.07)"/><path class="cls-4" d="M616.94,341.91l25.57-51.31,26,51.74V293.42h6v53.36H664.06l-21.55-43.61-21.29,43.61H611V293.42h6Z" transform="translate(-272 -230.07)"/><path class="cls-7" d="M419.32,348.36,405,320.48h8.21a6.29,6.29,0,0,0,3.5-.94,8.41,8.41,0,0,0,2.44-2.39A10.05,10.05,0,0,0,420.6,314a13.16,13.16,0,0,0,.43-3.25,12.81,12.81,0,0,0-2.14-6.88,9.15,9.15,0,0,0-2.52-2.48,6.08,6.08,0,0,0-3.38-1H386.31v48h-6V295H414.1a10.81,10.81,0,0,1,5,1.24,14.15,14.15,0,0,1,4.19,3.33,16.32,16.32,0,0,1,2.86,5,18,18,0,0,1,1.07,6.24,15.73,15.73,0,0,1-1,5.69,16.82,16.82,0,0,1-2.77,4.79,13.56,13.56,0,0,1-4.11,3.33,10.55,10.55,0,0,1-5,1.24l11.37,22.49Z" transform="translate(-272 -230.07)"/><path class="cls-8" d="M495.51,348.36l-14.28-27.88h8.21a6.3,6.3,0,0,0,3.51-.94,8.26,8.26,0,0,0,2.43-2.39A9.86,9.86,0,0,0,496.8,314a13.61,13.61,0,0,0,.42-3.25,12.16,12.16,0,0,0-.55-3.54,11.83,11.83,0,0,0-1.59-3.34,9,9,0,0,0-2.52-2.48,6.05,6.05,0,0,0-3.38-1H462.5v48h-6V295H490.3a10.79,10.79,0,0,1,5,1.24,14,14,0,0,1,4.19,3.33,16.34,16.34,0,0,1,2.87,5,18,18,0,0,1,1.07,6.24,16,16,0,0,1-1,5.69,16.62,16.62,0,0,1-2.78,4.79,13.56,13.56,0,0,1-4.11,3.33,10.49,10.49,0,0,1-5,1.24l11.38,22.49Z" transform="translate(-272 -230.07)"/><path class="cls-9" d="M530.32,321.68a26,26,0,0,1,2.14-10.48,27,27,0,0,1,14.36-14.32,27.35,27.35,0,0,1,21.21,0A27,27,0,0,1,582.4,311.2a26.85,26.85,0,0,1,0,21,27.46,27.46,0,0,1-5.78,8.55,27.15,27.15,0,0,1-8.59,5.77,27.35,27.35,0,0,1-21.21,0,27,27,0,0,1-14.36-14.32A25.92,25.92,0,0,1,530.32,321.68Zm5.73.09a19.5,19.5,0,0,0,1.71,8.08,22.48,22.48,0,0,0,4.61,6.71,22.13,22.13,0,0,0,6.8,4.62,20.78,20.78,0,0,0,16.51,0,22.67,22.67,0,0,0,6.84-4.62,21.92,21.92,0,0,0,4.66-6.71,19.5,19.5,0,0,0,1.71-8.08,19.92,19.92,0,0,0-1.71-8.09,22,22,0,0,0-4.62-6.79,22.47,22.47,0,0,0-6.8-4.66,19.81,19.81,0,0,0-8.25-1.76,20.1,20.1,0,0,0-8.29,1.76,22.34,22.34,0,0,0-6.85,4.66,22.11,22.11,0,0,0-4.61,6.79A19.92,19.92,0,0,0,536.05,321.77Z" transform="translate(-272 -230.07)"/><path class="cls-10" d="M619.34,343.49l25.57-51.31,26,51.73V295h6v53.36H666.46l-21.55-43.61-21.3,43.61H613.35V295h6Z" transform="translate(-272 -230.07)"/></svg>